{"title":"Bang Bang 2014 Hindi HDDVDSCRRip ACC GOPI SAHI PDR","uid":11149439,"size":734079922,"categoryP":"video","categoryS":"movies","magnet":"?xt=urn:btih:6ca6efda6ade20f2cb87cd20ff195aa5af56b01e&amp;dn=Bang+Bang+2014+Hindi+HDDVDSCRRip+ACC+GOPI+SAHI+PDR&amp;tr=udp%3A%2F%2Ftracker.openbittorrent.com%3A80&amp;tr=udp%3A%2F%2Fopen.demonii.com%3A1337&amp;tr=udp%3A%2F%2Ftracker.coppersurfer.tk%3A6969&amp;tr=udp%3A%2F%2Fexodus.desync.com%3A6969","seeders":2,"leechers":0,"uploader":"jatt13","files":1,"time":1412309471,"description":"General\nUnique ID                      : 234253252901854507749419501098681861934 (0xB03B8912297751C6B8B797B41645872E)\nComplete name                  : D:FILMBang Bang 2014 Hindi HDDVDSCRRip ACC GOPI SAHI PDR.mkv\nFormat                         : Matroska\nFormat version                 : Version 4 / Version 2\nFile size                      : 700 MiB\nDuration                       : 2h 31mn\nOverall bit rate               : 645 Kbps\nMovie name                     : GOPI SAHI\nEncoded date                   : UTC 2014-10-03 15:24:30\nWriting application            : mkvmerge v6.5.0 ('Isn't she lovely') built on Oct 20 2013 12:50:05\nWriting library                : libebml v1.3.0 + libmatroska v1.4.1\n\nVideo\nID                             : 2\nFormat                         : AVC\nFormat/Info                    : Advanced Video Codec\nFormat profile                 : &lt;a class=&quot;__cf_email__&quot; href=&quot;/cdn-cgi/l/email-protection&quot; data-cfemail=&quot;0f476668674f433d213e&quot;&gt;[email&amp;#160;protected]&lt;/a&gt;&lt;script cf-hash='f9e31' type=&quot;text/javascript&quot;&gt;\n/* &lt;![CDATA[ */!function(){try{var t=&quot;currentScript&quot;in document?document.currentScript:function(){for(var t=document.getElementsByTagName(&quot;script&quot;),e=t.length;e--;)if(t[e].getAttribute(&quot;cf-hash&quot;))return t[e]}();if(t&amp;&amp;t.previousSibling){var e,r,n,i,c=t.previousSibling,a=c.getAttribute(&quot;data-cfemail&quot;);if(a){for(e=&quot;&quot;,r=parseInt(a.substr(0,2),16),n=2;a.length-n;n+=2)i=parseInt(a.substr(n,2),16)^r,e+=String.fromCharCode(i);e=document.createTextNode(e),c.parentNode.replaceChild(e,c)}}}catch(u){}}();/* ]]&gt; */&lt;/script&gt;\nFormat settings, CABAC         : Yes\nFormat settings, ReFrames      : 4 frames\nCodec ID                       : V_MPEG4/ISO/AVC\nDuration                       : 2h 31mn\nBit rate                       : 577 Kbps\nWidth                          : 640 pixels\nHeight                         : 272 pixels\nDisplay aspect ratio           : 2.35:1\nFrame rate mode                : Constant\nFrame rate                     : 25.000 fps\nColor space                    : YUV\nChroma subsampling             : 4:2:0\nBit depth                      : 8 bits\nScan type                      : Progressive\nBits/(Pixel*Frame)             : 0.133\nStream size                    : 617 MiB (88%)\nTitle                          : GOPI SAHI\nWriting library                : x264 core 142 r2431 ac76440\nLanguage                       : Hindi\nDefault                        : Yes\nForced                         : No\n\nAudio\nID                             : 1\nFormat                         : AC-3\nFormat/Info                    : Audio Coding 3\nMode extension                 : CM (complete main)\nFormat settings, Endianness    : Big\nCodec ID                       : A_AC3\nDuration                       : 2h 31mn\nBit rate mode                  : Constant\nBit rate                       : 64.0 Kbps\nChannel(s)                     : 2 channels\nChannel positions              : Front: L R\nSampling rate                  : 48.0 KHz\nBit depth                      : 16 bits\nCompression mode               : Lossy\nStream size                    : 69.4 MiB (10%)\nTitle                          : GOPI SAHI\nLanguage                       : Hindi\nDefault                        : Yes\nForced                         : No\n\nText\nID                             : 3\nFormat                         : VobSub\nMuxing mode                    : zlib\nCodec ID                       : S_VOBSUB\nCodec ID/Info                  : The same subtitle format used on DVDs\nLanguage                       : English\nDefault                        : Yes\nForced                         : No\n","torrent":{"xt":"urn:btih:6ca6efda6ade20f2cb87cd20ff195aa5af56b01e","amp;dn":"Bang+Bang+2014+Hindi+HDDVDSCRRip+ACC+GOPI+SAHI+PDR","amp;tr":["udp%3A%2F%2Ftracker.openbittorrent.com%3A80","udp%3A%2F%2Fopen.demonii.com%3A1337","udp%3A%2F%2Ftracker.coppersurfer.tk%3A6969","udp%3A%2F%2Fexodus.desync.com%3A6969"],"infoHash":"6ca6efda6ade20f2cb87cd20ff195aa5af56b01e","infoHashBuffer":{"type":"Buffer","data":[108,166,239,218,106,222,32,242,203,135,205,32,255,25,90,165,175,86,176,30]},"announce":[],"urlList":[]}}